<?xml version="1.0" encoding="utf-8"?>
<!-- Generator: Adobe Illustrator 27.9.0, SVG Export Plug-In . SVG Version: 6.00 Build 0)  -->
<svg version="1.1" id="Layer_1" xmlns="http://www.w3.org/2000/svg" xmlns:xlink="http://www.w3.org/1999/xlink" x="0px" y="0px"
	 viewBox="0 0 2048 2048" style="enable-background:new 0 0 2048 2048;" xml:space="preserve">
<style type="text/css">
	.st0{fill:#F29C1F;}
	.st1{font-family:'Garamond';}
	.st2{font-size:382.9938px;}
</style>
<g>
	<polyline class="st0" points="1038.2,1046.1 998.91,1007.16 947.52,1071.63 905.84,986.03 833.8,1043.8 934.65,861.21 
		857.19,729.83 686.93,678.79 530.79,712.25 604.36,617.34 694.31,510.44 860.49,439.19 1039.37,394.78 863.66,505.35 
		781.91,595.96 811.75,611.58 810.37,656.83 934.75,601.59 1009.4,595.31 956.54,649.46 931.33,708.95 958.48,768.33 
		1031.93,745.32 1082.51,693.52 1073.17,650.85 1051.08,603.12 1129.51,593.14 1207.22,636.14 1213.09,578.93 1276.64,565.03 
		1234.89,491.39 1088.95,381.79 1390.17,474.59 1474.47,582.38 1517.21,656.1 1446.78,665.38 1323.21,665.5 1138.62,715.42 
		1076.25,850.43 1028.74,880.42 1039.54,1044.72 	"/>
	<text transform="matrix(0.9487 0 0 1 530.7875 974.6945)" class="st1 st2">M</text>
	<text transform="matrix(1 0 0 1 1128.4009 974.6906)" class="st1 st2">K</text>
</g>
</svg>
